<svg width="500" height="488" viewBox="0 0 500 488" fill="none"
  xmlns="http://www.w3.org/2000/svg">
  <g clip-path="url(#clip0_8001_1920)">
    <mask id="mask0_8001_1920" style="mask-type:luminance" maskUnits="userSpaceOnUse" x="0" y="0" width="500" height="488">
      <path d="M500 0.167969H0V487.34H500V0.167969Z" fill="white"/>
    </mask>
    <g mask="url(#mask0_8001_1920)">
      <path d="M106.155 429.078H438.38" stroke="#303633" stroke-linecap="round" stroke-linejoin="round"/>
      <path d="M105.634 432.447H437.859" stroke="white" stroke-linecap="round" stroke-linejoin="round"/>
      <path d="M393.312 238.843H170.589C158.921 238.843 149.462 248.059 149.462 259.428V408.495C149.462 419.863 158.921 429.079 170.589 429.079H393.312C404.98 429.079 414.439 419.863 414.439 408.495V259.428C414.439 248.059 404.98 238.843 393.312 238.843Z" fill="white" stroke="#303633" stroke-miterlimit="10" stroke-linecap="round" stroke-linejoin="round"/>
      <path d="M323.789 310.182C337.268 310.182 348.195 299.536 348.195 286.403C348.195 273.27 337.268 262.623 323.789 262.623C310.31 262.623 299.384 273.27 299.384 286.403C299.384 299.536 310.31 310.182 323.789 310.182Z" fill="#303633"/>
      <path d="M362.141 310.182C375.62 310.182 386.547 299.536 386.547 286.403C386.547 273.27 375.62 262.623 362.141 262.623C348.662 262.623 337.735 273.27 337.735 286.403C337.735 299.536 348.662 310.182 362.141 310.182Z" fill="#0DD149"/>
      <path d="M227.909 347.553H186.071C181.257 347.553 177.354 351.355 177.354 356.045C177.354 360.736 181.257 364.538 186.071 364.538H227.909C232.723 364.538 236.626 360.736 236.626 356.045C236.626 351.355 232.723 347.553 227.909 347.553Z" fill="#303633"/>
      <path d="M370.857 371.331H186.071C181.257 371.331 177.354 375.133 177.354 379.824C177.354 384.514 181.257 388.316 186.071 388.316H370.857C375.671 388.316 379.574 384.514 379.574 379.824C379.574 375.133 375.671 371.331 370.857 371.331Z" fill="#303633"/>
      <path d="M70.9876 350.572L70.9376 350.544L70.8852 350.52C46.2746 338.984 33.3415 319.232 29.6983 297.195C26.0466 275.107 31.7347 250.697 44.4908 230.067C57.2598 209.415 75.8246 193.307 97.3528 185.784C118.832 178.279 143.402 179.267 168.405 193.019C190.815 205.344 206.216 222.648 212.015 243.325C217.812 263.989 214.088 288.276 197.738 314.719C182.098 340.015 161.157 354.853 138.836 360.456C116.503 366.062 92.608 362.463 70.9876 350.572Z" fill="white" stroke="#002A3A"/>
      <path d="M62.849 348.065C101.47 369.306 154.993 350.599 182.396 306.279C209.799 261.96 200.704 208.813 162.083 187.571C123.462 166.329 69.9386 185.037 42.5359 229.356C15.1332 273.675 24.2277 326.823 62.849 348.065Z" fill="#303633" stroke="white"/>
      <path d="M190.141 228.314L208.939 237.424" stroke="#002A3A" stroke-linecap="round"/>
      <path d="M193.662 250.616L213.983 260.382" stroke="#002A3A" stroke-linecap="round"/>
      <path d="M191.901 271.2L211.269 281.853" stroke="#002A3A" stroke-linecap="round"/>
      <path d="M204.208 300.921L188.355 291.604" stroke="#002A3A" stroke-linecap="round"/>
      <path d="M176.056 312.369L191.901 320.946" stroke="#002A3A" stroke-linecap="round"/>
      <path d="M158.451 329.523L176.056 339.816" stroke="#002A3A" stroke-linecap="round"/>
      <path d="M140.845 343.247L157.239 352.188" stroke="#002A3A" stroke-linecap="round"/>
      <path d="M114.437 351.824L129.051 361.931" stroke="#002A3A" stroke-linecap="round"/>
      <path d="M99.8058 271.358C91.0572 284.282 75.6635 288.655 65.5864 282.177C55.5093 275.699 53.5748 260.188 62.323 247.263C71.0716 234.339 86.4653 229.967 96.5424 236.444C106.619 242.922 108.554 258.434 99.8058 271.358Z" stroke="white" stroke-width="2"/>
      <path d="M163.99 287.48C159.477 293.841 153.601 298.303 147.824 300.425C142.039 302.549 136.53 302.282 132.441 299.528C128.353 296.774 126.151 291.846 126.146 285.821C126.141 279.805 128.349 272.872 132.861 266.51C137.374 260.149 143.25 255.687 149.027 253.565C154.812 251.441 160.321 251.708 164.41 254.462C168.498 257.216 170.7 262.144 170.705 268.169C170.71 274.185 168.502 281.119 163.99 287.48Z" stroke="white" stroke-width="2"/>
      <path d="M148.213 223.168L82.5818 317.155" stroke="white" stroke-width="2" stroke-linecap="round"/>
      <path fill-rule="evenodd" clip-rule="evenodd" d="M429.799 180.376C404.49 194.701 369.085 182.726 350.718 153.632C332.861 125.342 337.688 91.2835 361.233 76.2519C360.338 76.7095 359.444 77.1916 358.55 77.6983C328.768 94.5527 317.485 124.772 339.654 159.892C360.902 193.549 396.257 199.359 425.057 183.059C427.986 181.641 430.669 180.05 433.109 178.309C432.046 179.039 430.944 179.729 429.799 180.376ZM446.028 164.548C449.352 159.019 451.542 152.754 452.542 146.097C451.613 152.624 449.486 158.886 446.028 164.548ZM429.585 86.4842C421.166 78.8212 411.321 73.4757 401.215 70.8408C411.778 73.3412 421.454 78.8788 429.585 86.4842Z" fill="#303633"/>
      <path d="M357.394 77.3604C327.614 94.2148 317.486 124.771 339.655 159.891C360.901 193.548 395.497 200.015 424.296 183.715" stroke="white" stroke-linecap="round"/>
      <path d="M429.783 180.356C404.462 194.689 369.054 182.731 350.697 153.647C332.34 124.563 337.986 89.3662 363.307 75.0329C388.628 60.6996 424.036 72.6574 442.393 101.741C460.75 130.826 455.104 166.022 429.783 180.356Z" fill="#00AFFF"/>
      <path d="M429.783 180.356C404.462 194.689 369.054 182.731 350.697 153.647C332.34 124.563 337.986 89.3662 363.307 75.0329C388.628 60.6996 424.036 72.6574 442.393 101.741C460.75 130.826 455.104 166.022 429.783 180.356Z" fill="url(#paint0_linear_8001_1920)"/>
      <path d="M410.447 162.809L369.099 101.996" stroke="white" stroke-width="2" stroke-linecap="round" stroke-linejoin="round"/>
      <path d="M382.021 139.623L403.556 125.338C412.514 119.396 414.933 107.456 408.961 98.6702C402.989 89.8847 390.887 87.5792 381.93 93.5213L369.067 102.052L383.099 122.69" stroke="white" stroke-width="2" stroke-linecap="round"/>
      <path d="M389.933 151.207L423.472 129.22" stroke="white" stroke-width="2" stroke-linecap="round" stroke-linejoin="round"/>
      <path fill-rule="evenodd" clip-rule="evenodd" d="M193.972 161.079C205.278 127.929 248.018 96.9685 299.768 113.776C302.535 114.675 305.526 113.218 306.449 110.522C307.371 107.825 305.875 104.911 303.108 104.012C245.22 85.2108 196.888 119.889 183.948 157.834C183.028 160.531 184.526 163.444 187.295 164.34C190.063 165.236 193.052 163.776 193.972 161.079Z" fill="#303633"/>
      <path d="M184.878 177.659C183.047 178.474 180.888 177.63 180.143 175.808L169.235 149.11C168.09 146.308 170.945 143.534 173.817 144.657L211.55 159.411C214.422 160.534 214.517 164.462 211.702 165.715L184.878 177.659Z" fill="#303633"/>
    </g>
  </g>
  <defs>
    <linearGradient id="paint0_linear_8001_1920" x1="369.5" y1="78.6027" x2="424.578" y2="169.461" gradientUnits="userSpaceOnUse">
      <stop stop-color="#6FBEFD"/>
      <stop offset="1" stop-color="#0072CE"/>
    </linearGradient>
    <clipPath id="clip0_8001_1920">
      <rect width="500" height="487.172" fill="white" transform="translate(0 0.167969)"/>
    </clipPath>
  </defs>
</svg>


