<svg width="30" height="32" viewBox="0 0 30 32" fill="none"
  xmlns="http://www.w3.org/2000/svg">
  <g clip-path="url(#clip0_8001_351)">
    <path d="M15.5304 31.3631L8.44985 18.8197C8.36813 18.6746 8.34688 18.5027 8.39077 18.3419C8.43465 18.181 8.54009 18.0442 8.68395 17.9615" fill="#0578BE"/>
    <path d="M8.68422 17.9622L12.069 16.0295L8.69957 14.0967C8.55571 14.0141 8.45028 13.8773 8.40639 13.7164C8.36251 13.5555 8.38375 13.3837 8.46548 13.2386L15.546 0.695133C15.5862 0.623516 15.6402 0.560599 15.7046 0.509981C15.769 0.459362 15.8427 0.422036 15.9215 0.400136C16.0003 0.378236 16.0826 0.372193 16.1637 0.382351C16.2448 0.39251 16.323 0.418672 16.3941 0.45934L25.4203 5.62748V7.85398L16.5937 2.79022L10.7758 13.0569L25.4203 21.445V26.4199L15.5273 31.3782" fill="#0578BE"/>
    <path d="M18.2889 7.25846L25.4193 11.3636V13.4703L17.3871 8.83171C17.1901 8.70516 17.0492 8.50714 16.9932 8.27872C16.9373 8.05029 16.9708 7.80895 17.0867 7.60473C17.2027 7.40048 17.3922 7.24901 17.616 7.18167C17.8398 7.11433 18.0807 7.1363 18.2889 7.243" fill="#373A3B"/>
    <path d="M16.4281 10.7259L25.4197 15.9018V18.0085L15.5301 12.3146C15.418 12.26 15.3182 12.1827 15.237 12.0876C15.1557 11.9925 15.0947 11.8816 15.0578 11.7618C15.0208 11.642 15.0087 11.5159 15.0222 11.3912C15.0356 11.2664 15.0743 11.1458 15.136 11.0368C15.1976 10.9278 15.2808 10.8327 15.3804 10.7574C15.48 10.682 15.5939 10.6282 15.7151 10.599C15.8362 10.5699 15.962 10.5661 16.0847 10.5879C16.2073 10.6098 16.3242 10.6567 16.4281 10.7259Z" fill="#373A3B"/>
    <path d="M28.4933 5.92053H27.1501V26.0596H28.4933V5.92053Z" fill="#373A3B"/>
  </g>
  <defs>
    <clipPath id="clip0_8001_351">
      <rect width="30" height="31" fill="white" transform="translate(0 0.377563)"/>
    </clipPath>
  </defs>
</svg>
