<svg width="213" height="62" viewBox="0 0 213 62" fill="none"
  xmlns="http://www.w3.org/2000/svg">
  <g clip-path="url(#clip0_8001_1191)">
    <g clip-path="url(#clip1_8001_1191)">
      <g clip-path="url(#clip2_8001_1191)">
        <mask id="mask0_8001_1191" style="mask-type:luminance" maskUnits="userSpaceOnUse" x="0" y="0" width="213" height="62">
          <path d="M212.236 0.000976562H0.236328V61.1298H212.236V0.000976562Z" fill="white"/>
        </mask>
        <g mask="url(#mask0_8001_1191)">
          <path d="M211.323 10.1729C211.325 10.6404 211.243 11.1044 211.081 11.5428C210.922 11.9758 210.663 12.3649 210.325 12.678C209.921 13.0258 209.447 13.2837 208.935 13.4348C208.252 13.6409 207.541 13.738 206.828 13.7224C206.128 13.7361 205.431 13.6468 204.758 13.4576C204.244 13.3063 203.768 13.0485 203.36 12.7007C203.016 12.3954 202.756 12.0072 202.605 11.5731C202.437 11.1073 202.355 10.615 202.363 10.12C202.359 10.0124 202.382 9.90554 202.431 9.80968C202.487 9.72605 202.566 9.66033 202.657 9.62044C202.797 9.56213 202.945 9.52636 203.096 9.51449C203.329 9.50083 203.564 9.50083 203.798 9.51449C204.018 9.51306 204.237 9.52567 204.455 9.55233C204.592 9.56798 204.725 9.60635 204.848 9.66588C204.93 9.714 204.996 9.78506 205.037 9.8702C205.078 9.95773 205.099 10.0535 205.097 10.1502C205.096 10.3624 205.134 10.5731 205.211 10.7708C205.293 10.9544 205.411 11.1193 205.558 11.2552C205.725 11.399 205.917 11.5095 206.125 11.5806C206.369 11.661 206.624 11.6994 206.881 11.6941C207.124 11.6963 207.366 11.6605 207.598 11.5882C207.805 11.5195 207.995 11.4087 208.157 11.2628C208.307 11.1244 208.423 10.9535 208.497 10.7632C208.574 10.5577 208.613 10.3396 208.61 10.12C208.611 10.0315 208.629 9.94412 208.663 9.86266C208.708 9.77946 208.777 9.71114 208.86 9.66588C208.979 9.60817 209.106 9.56985 209.237 9.55233C209.44 9.52576 209.645 9.5131 209.849 9.51449C210.101 9.50014 210.353 9.50014 210.605 9.51449C210.765 9.5268 210.923 9.56252 211.073 9.62044C211.17 9.66037 211.253 9.72579 211.315 9.80968C211.359 9.9071 211.382 10.0129 211.383 10.12M212.297 26.4977C212.296 26.5736 212.273 26.6476 212.229 26.7096C212.164 26.7801 212.08 26.8301 211.987 26.8534C211.835 26.8987 211.678 26.9267 211.519 26.9366C211.33 26.9366 211.081 26.9366 210.763 26.9366C210.446 26.9366 210.212 26.9366 210.008 26.9366C209.839 26.9263 209.672 26.8984 209.51 26.8534C209.407 26.8315 209.313 26.7817 209.237 26.7096C209.21 26.6815 209.189 26.6484 209.175 26.612C209.161 26.5756 209.154 26.5367 209.154 26.4977V21.6161C209.154 21.268 209.154 20.9123 209.192 20.5339C209.23 20.1555 209.237 19.7771 209.283 19.4441C209.086 19.7922 208.867 20.1328 208.633 20.4658C208.399 20.7988 208.172 21.1394 207.931 21.4724L204.206 26.5431C204.141 26.6238 204.07 26.6998 203.995 26.7701C203.921 26.8352 203.837 26.8864 203.745 26.9215C203.618 26.9627 203.486 26.9856 203.352 26.9896C203.194 26.9896 202.99 26.9896 202.748 26.9896C202.507 26.9896 202.204 26.9896 201.993 26.9896C201.844 26.9801 201.697 26.9522 201.555 26.9064C201.463 26.8811 201.379 26.8315 201.313 26.7626C201.271 26.6968 201.248 26.621 201.245 26.5431V15.4404C201.248 15.3672 201.271 15.2964 201.313 15.2361C201.382 15.1644 201.468 15.11 201.562 15.0772C201.718 15.0325 201.877 15.0021 202.038 14.9863C202.29 14.9719 202.542 14.9719 202.794 14.9863C203.21 14.9694 203.627 15.0102 204.032 15.1074C204.274 15.1983 204.387 15.3118 204.387 15.4707V20.3825C204.387 20.7231 204.387 21.0712 204.387 21.4345C204.387 21.7978 204.327 22.1535 204.282 22.4865L204.894 21.5026C205.097 21.1772 205.317 20.8669 205.551 20.5566L209.328 15.4707C209.386 15.3867 209.454 15.3104 209.532 15.2437C209.614 15.1757 209.709 15.1243 209.812 15.0923C209.947 15.0514 210.086 15.026 210.227 15.0166C210.433 15.0027 210.64 15.0027 210.847 15.0166C211.085 15.0031 211.325 15.0031 211.564 15.0166C211.718 15.0256 211.87 15.0535 212.018 15.0999C212.11 15.1278 212.191 15.1833 212.252 15.2588C212.291 15.328 212.312 15.4062 212.312 15.4859L212.297 26.4977ZM190.268 22.9179C190.271 22.6606 190.23 22.4046 190.147 22.161C190.058 21.9341 189.912 21.7337 189.724 21.5783C189.5 21.4063 189.243 21.2827 188.969 21.215C188.59 21.1251 188.202 21.0844 187.813 21.0939C187.541 21.0939 187.277 21.0939 187.057 21.0939L186.393 21.1393V24.7115L187.103 24.7721C187.33 24.7721 187.602 24.7721 187.904 24.7721C188.547 24.8297 189.19 24.6553 189.717 24.2802C189.909 24.1083 190.061 23.8953 190.16 23.6569C190.26 23.4185 190.304 23.1607 190.291 22.9027M186.393 18.7932L187.254 18.7326C187.541 18.7326 187.858 18.7326 188.213 18.7326C189.008 18.7171 189.801 18.8114 190.57 19.0126C191.138 19.1865 191.664 19.4722 192.119 19.8528C192.538 20.1884 192.867 20.6226 193.078 21.1167C193.298 21.649 193.406 22.2209 193.396 22.7968C193.401 23.4128 193.28 24.0233 193.041 24.5905C192.803 25.1339 192.434 25.6098 191.968 25.9755C191.425 26.3931 190.803 26.6968 190.14 26.8685C189.275 27.096 188.382 27.203 187.488 27.1864H186.657C186.378 27.1864 186.106 27.1864 185.841 27.1864L185.086 27.141L184.331 27.0804C184.169 27.0866 184.008 27.057 183.858 26.9938C183.71 26.9306 183.576 26.8352 183.468 26.7146C183.36 26.594 183.28 26.451 183.233 26.2958C183.186 26.1406 183.174 25.977 183.197 25.8165V15.4556C183.198 15.3761 183.224 15.299 183.273 15.2361C183.342 15.1644 183.428 15.11 183.522 15.0772C183.673 15.0331 183.827 15.0027 183.983 14.9863C184.217 14.9729 184.451 14.9729 184.686 14.9863C185.112 14.9704 185.539 15.0111 185.955 15.1074C186.196 15.1983 186.317 15.3193 186.317 15.4859L186.393 18.7932ZM198.11 26.4901C198.113 26.5689 198.088 26.6463 198.042 26.7096C197.972 26.7827 197.883 26.8351 197.785 26.8609C197.634 26.9139 197.476 26.947 197.317 26.9594C197.065 26.973 196.813 26.973 196.561 26.9594C196.31 26.9737 196.057 26.9737 195.806 26.9594C195.643 26.9469 195.484 26.9138 195.33 26.8609C195.23 26.8388 195.14 26.7859 195.073 26.7096C195.02 26.649 194.993 26.5703 194.997 26.4901V15.4556C194.995 15.3756 195.022 15.2975 195.073 15.2361C195.142 15.1596 195.231 15.1044 195.33 15.0772C195.485 15.031 195.645 15.0006 195.806 14.9863C196.057 14.972 196.31 14.972 196.561 14.9863C196.813 14.9727 197.065 14.9727 197.317 14.9863C197.475 15.0005 197.632 15.0309 197.785 15.0772C197.882 15.1084 197.971 15.163 198.042 15.2361C198.088 15.3 198.111 15.377 198.11 15.4556V26.4901ZM180.032 26.4901C180.036 26.5703 180.009 26.649 179.957 26.7096C179.891 26.7846 179.804 26.8374 179.707 26.8609C179.553 26.9138 179.393 26.9469 179.231 26.9594C178.979 26.9732 178.727 26.9732 178.476 26.9594C178.224 26.9729 177.972 26.9729 177.72 26.9594C177.556 26.946 177.393 26.9129 177.237 26.8609C177.143 26.8355 177.059 26.7829 176.995 26.7096C176.943 26.649 176.915 26.5703 176.92 26.4901V22.161H172.478V26.4901C172.482 26.5703 172.455 26.649 172.402 26.7096C172.336 26.7846 172.25 26.8374 172.153 26.8609C171.999 26.9122 171.839 26.9452 171.677 26.9594C171.425 26.9728 171.173 26.9728 170.921 26.9594C170.67 26.9731 170.417 26.9731 170.166 26.9594C170.004 26.9461 169.844 26.9131 169.69 26.8609C169.591 26.837 169.502 26.7844 169.433 26.7096C169.38 26.649 169.354 26.5703 169.357 26.4901V15.4556C169.355 15.3756 169.382 15.2975 169.433 15.2361C169.503 15.1611 169.592 15.1063 169.69 15.0772C169.845 15.0318 170.005 15.0014 170.166 14.9863C170.417 14.9726 170.67 14.9726 170.921 14.9863C171.173 14.9729 171.425 14.9729 171.677 14.9863C171.838 15.0021 171.997 15.0325 172.153 15.0772C172.249 15.1061 172.335 15.1611 172.402 15.2361C172.453 15.2975 172.48 15.3756 172.478 15.4556V19.5954H176.95V15.4556C176.947 15.3756 176.974 15.2975 177.025 15.2361C177.09 15.1628 177.174 15.108 177.267 15.0772C177.425 15.0319 177.587 15.0015 177.751 14.9863C178.002 14.9728 178.255 14.9728 178.506 14.9863C178.757 14.9725 179.01 14.9725 179.262 14.9863C179.423 15.0006 179.582 15.031 179.737 15.0772C179.833 15.1061 179.92 15.1611 179.986 15.2361C180.038 15.2975 180.065 15.3756 180.062 15.4556L180.032 26.4901ZM164.002 22.9482C163.999 22.69 163.953 22.434 163.865 22.1913C163.769 21.9642 163.619 21.7641 163.427 21.6086C163.202 21.438 162.945 21.3145 162.672 21.2453C162.291 21.1561 161.9 21.1155 161.509 21.1242C161.214 21.1242 160.934 21.1242 160.662 21.1242L159.907 21.1696V24.7419L160.662 24.8024C160.929 24.8024 161.216 24.8024 161.523 24.8024C162.181 24.8566 162.837 24.6829 163.382 24.3104C163.581 24.1426 163.74 23.931 163.844 23.6922C163.949 23.4534 163.998 23.1936 163.986 22.933M167.265 22.7589C167.272 23.3758 167.149 23.9871 166.902 24.5526C166.65 25.102 166.262 25.5784 165.777 25.9376C165.208 26.3553 164.564 26.6586 163.881 26.8307C162.997 27.057 162.088 27.1639 161.176 27.1486H160.391C160.104 27.1486 159.816 27.1486 159.537 27.1486L158.713 27.1031L157.958 27.0426C157.796 27.0504 157.635 27.0218 157.485 26.959C157.336 26.8961 157.202 26.8007 157.094 26.6796C156.986 26.5584 156.907 26.4147 156.862 26.2588C156.816 26.1029 156.806 25.9389 156.833 25.7787V15.4556C156.829 15.3756 156.857 15.2975 156.908 15.2361C156.976 15.1596 157.066 15.1044 157.165 15.0772C157.32 15.0318 157.479 15.0014 157.641 14.9863C157.892 14.9723 158.144 14.9723 158.396 14.9863C158.648 14.9726 158.9 14.9726 159.152 14.9863C159.313 15.0021 159.472 15.0325 159.628 15.0772C159.726 15.1063 159.814 15.1611 159.884 15.2361C159.938 15.2968 159.967 15.3747 159.967 15.4556V18.8613L160.881 18.8007C161.214 18.8007 161.554 18.8007 161.894 18.8007C162.713 18.7852 163.532 18.8794 164.326 19.0808C164.938 19.2277 165.514 19.4981 166.018 19.8754C166.446 20.2097 166.786 20.6436 167.008 21.1393C167.234 21.6701 167.344 22.2428 167.333 22.8195M153.735 26.5355C153.738 26.6143 153.714 26.6916 153.667 26.755C153.599 26.8266 153.513 26.8789 153.418 26.9064C153.261 26.9591 153.099 26.9922 152.934 27.0047C152.683 27.0188 152.43 27.0188 152.179 27.0047C151.927 27.0181 151.675 27.0181 151.423 27.0047C151.256 26.9902 151.092 26.9572 150.933 26.9064C150.838 26.881 150.754 26.8283 150.691 26.755C150.652 26.7222 150.622 26.6815 150.601 26.6358C150.58 26.5901 150.57 26.5404 150.57 26.4901V17.5747H148.304C148.167 18.8764 148.001 20.0117 147.812 20.988C147.648 21.8488 147.421 22.6962 147.133 23.5233C146.924 24.146 146.639 24.7407 146.286 25.2943C146.014 25.7226 145.669 26.0992 145.267 26.4069C144.902 26.6718 144.492 26.8692 144.058 26.9896C143.611 27.1065 143.152 27.1651 142.691 27.1637C142.592 27.1681 142.494 27.1499 142.404 27.1107C142.324 27.0716 142.262 27.0041 142.23 26.9215C142.182 26.7873 142.155 26.6472 142.146 26.5052C142.146 26.316 142.146 26.0814 142.146 25.7484C142.146 25.4154 142.146 25.1959 142.146 24.9916C142.155 24.8409 142.178 24.6913 142.215 24.5451C142.234 24.463 142.283 24.3905 142.351 24.3407C142.417 24.309 142.489 24.2934 142.562 24.2953C142.809 24.2986 143.054 24.241 143.274 24.1275C143.494 24.014 143.682 23.8481 143.824 23.6444C144.034 23.343 144.209 23.0178 144.345 22.6757C144.539 22.1849 144.69 21.6786 144.798 21.162C144.941 20.549 145.078 19.8225 145.199 18.9748C145.319 18.1272 145.44 17.1357 145.554 16.0156C145.552 15.7474 145.628 15.4845 145.773 15.2588C145.851 15.1713 145.948 15.1033 146.057 15.0599C146.166 15.0166 146.283 14.9991 146.399 15.0091H152.836C152.955 14.9967 153.075 15.0129 153.187 15.0564C153.299 15.0998 153.398 15.1692 153.478 15.2588C153.637 15.4775 153.712 15.7461 153.69 16.0156L153.735 26.5355ZM137.357 21.8356H136.141C135.708 21.8289 135.274 21.8669 134.849 21.9491C134.543 22.003 134.25 22.1161 133.988 22.2822C133.779 22.4168 133.609 22.6049 133.496 22.8271C133.391 23.0516 133.339 23.2979 133.346 23.5461C133.334 23.75 133.367 23.954 133.443 24.1436C133.519 24.3333 133.635 24.5039 133.784 24.6434C134.124 24.9254 134.56 25.0662 135 25.037C135.426 25.0421 135.845 24.9266 136.209 24.704C136.627 24.432 137.003 24.1006 137.327 23.7201L137.357 21.8356ZM140.417 26.5734C140.42 26.627 140.41 26.6807 140.388 26.7296C140.365 26.7784 140.331 26.821 140.288 26.8534C140.172 26.9278 140.04 26.9744 139.903 26.9896C139.653 27.0236 139.4 27.0387 139.147 27.035C138.875 27.041 138.602 27.0258 138.332 26.9896C138.203 26.9753 138.081 26.9284 137.977 26.8534C137.941 26.8164 137.913 26.7725 137.895 26.7243C137.877 26.6761 137.868 26.6248 137.871 26.5734V25.6727C137.431 26.1479 136.905 26.5357 136.322 26.8155C135.713 27.0937 135.05 27.2333 134.38 27.2242C133.833 27.2314 133.287 27.1522 132.764 26.9896C132.297 26.8506 131.863 26.6189 131.487 26.3085C131.127 26.0034 130.84 25.6205 130.649 25.1884C130.444 24.6949 130.343 24.1639 130.354 23.6293C130.339 23.0466 130.469 22.4693 130.732 21.9491C130.996 21.4624 131.384 21.0549 131.857 20.7685C132.434 20.431 133.066 20.1978 133.723 20.0798C134.575 19.919 135.44 19.8429 136.307 19.8528H137.387V19.1867C137.395 18.8805 137.359 18.5748 137.281 18.2785C137.227 18.0341 137.107 17.8091 136.934 17.6277C136.758 17.4444 136.536 17.3112 136.292 17.2417C135.969 17.1458 135.632 17.1024 135.295 17.113C134.826 17.1078 134.358 17.1663 133.904 17.2871C133.534 17.3912 133.17 17.5202 132.817 17.6731C132.507 17.8169 132.243 17.9455 132.061 18.0591C131.906 18.1565 131.73 18.2162 131.548 18.2331C131.459 18.2329 131.373 18.2007 131.306 18.1423C131.227 18.0759 131.167 17.9898 131.132 17.8926C131.087 17.7643 131.051 17.6327 131.026 17.499C131.014 17.3251 131.014 17.1506 131.026 16.9768C131.019 16.7732 131.039 16.5694 131.087 16.3714C131.129 16.2195 131.21 16.0813 131.321 15.9702C131.5 15.8049 131.704 15.6695 131.925 15.5691C132.254 15.409 132.595 15.2748 132.945 15.168C133.359 15.0336 133.784 14.9324 134.214 14.8653C134.68 14.7824 135.153 14.7418 135.627 14.7442C136.376 14.7284 137.123 14.815 137.848 15.0015C138.403 15.134 138.92 15.393 139.359 15.7583C139.766 16.1251 140.067 16.596 140.228 17.1206C140.421 17.758 140.513 18.4222 140.499 19.0883L140.417 26.5734ZM127.876 26.5734C127.88 26.6535 127.853 26.7322 127.801 26.7928C127.735 26.8678 127.648 26.9206 127.551 26.9442C127.397 26.9971 127.237 27.0302 127.075 27.0426C126.824 27.0565 126.572 27.0565 126.32 27.0426C126.068 27.0557 125.816 27.0557 125.564 27.0426C125.403 27.0285 125.243 26.9955 125.088 26.9442C124.995 26.9188 124.911 26.8661 124.847 26.7928C124.794 26.7322 124.767 26.6535 124.771 26.5734V22.161H120.299V26.4901C120.303 26.5703 120.276 26.649 120.224 26.7096C120.157 26.7828 120.07 26.8353 119.974 26.8609C119.82 26.9122 119.66 26.9452 119.498 26.9594C119.247 26.9728 118.995 26.9728 118.743 26.9594C118.491 26.9731 118.239 26.9731 117.988 26.9594C117.825 26.9461 117.665 26.9131 117.512 26.8609C117.413 26.837 117.323 26.7844 117.255 26.7096C117.202 26.649 117.175 26.5703 117.179 26.4901V15.4556C117.176 15.3756 117.203 15.2975 117.255 15.2361C117.325 15.1611 117.413 15.1063 117.512 15.0772C117.667 15.0318 117.826 15.0014 117.988 14.9863C118.239 14.9726 118.491 14.9726 118.743 14.9863C118.995 14.9729 119.247 14.9729 119.498 14.9863C119.659 15.0021 119.819 15.0325 119.974 15.0772C120.069 15.1081 120.155 15.1628 120.224 15.2361C120.275 15.2975 120.302 15.3756 120.299 15.4556V19.5954H124.771V15.4556C124.769 15.3756 124.795 15.2975 124.847 15.2361C124.912 15.1628 124.996 15.108 125.088 15.0772C125.244 15.0325 125.404 15.0021 125.564 14.9863C125.816 14.9732 126.068 14.9732 126.32 14.9863C126.572 14.9725 126.824 14.9725 127.075 14.9863C127.237 15.0006 127.396 15.031 127.551 15.0772C127.648 15.1061 127.734 15.1611 127.801 15.2361C127.852 15.2975 127.879 15.3756 127.876 15.4556V26.5734ZM111.513 21.0561C111.517 20.5483 111.472 20.0413 111.377 19.5424C111.305 19.1204 111.157 18.7151 110.939 18.3466C110.74 18.0132 110.456 17.7389 110.116 17.552C109.716 17.3476 109.272 17.2487 108.824 17.2644C108.404 17.2576 107.989 17.3456 107.608 17.5217C107.261 17.6935 106.966 17.9547 106.754 18.2785C106.52 18.6396 106.351 19.0393 106.256 19.4592C106.138 19.9728 106.082 20.4988 106.089 21.0258C106.082 21.5337 106.128 22.041 106.225 22.5395C106.298 22.9612 106.447 23.3662 106.664 23.7353C106.867 24.0553 107.151 24.3162 107.487 24.4921C107.886 24.6886 108.327 24.7847 108.771 24.7721C109.195 24.7796 109.616 24.6917 110.002 24.5148C110.347 24.3395 110.64 24.079 110.856 23.758C111.092 23.4016 111.259 23.0035 111.347 22.5849C111.462 22.0707 111.518 21.5451 111.513 21.0182M114.716 20.8972C114.71 21.768 114.572 22.633 114.309 23.4628C114.078 24.2046 113.691 24.8884 113.175 25.4684C112.657 26.0455 112.01 26.4916 111.287 26.7701C110.435 27.0917 109.53 27.2484 108.62 27.2318C107.751 27.2494 106.886 27.111 106.067 26.8231C105.375 26.5775 104.752 26.1672 104.253 25.6273C103.759 25.0746 103.395 24.4177 103.188 23.705C102.943 22.8594 102.826 21.9819 102.841 21.1015C102.832 20.2268 102.96 19.3562 103.219 18.5207C103.451 17.7772 103.837 17.0912 104.352 16.5076C104.877 15.9408 105.522 15.4987 106.24 15.2134C107.088 14.8875 107.991 14.7307 108.899 14.7518C109.775 14.7349 110.646 14.8706 111.475 15.1529C112.161 15.3985 112.778 15.806 113.274 16.3411C113.764 16.8954 114.125 17.552 114.331 18.2634C114.572 19.1149 114.689 19.997 114.679 20.882M100.393 26.5582C100.393 26.6342 100.369 26.7081 100.325 26.7701C100.258 26.8423 100.172 26.8925 100.076 26.9139C99.9285 26.9595 99.7764 26.9875 99.6224 26.9972C99.4261 26.9972 99.1768 26.9972 98.8672 26.9972C98.5572 26.9972 98.3158 26.9972 98.1116 26.9972C97.9429 26.9868 97.776 26.959 97.613 26.9139C97.5111 26.892 97.417 26.8423 97.3412 26.7701C97.3139 26.7421 97.2926 26.7089 97.2783 26.6725C97.264 26.6362 97.2571 26.5973 97.2579 26.5582V21.6161C97.2579 21.268 97.2579 20.9123 97.2956 20.5339C97.3338 20.1555 97.3412 19.7771 97.3867 19.4441C97.1903 19.7922 96.9709 20.1328 96.7368 20.4658C96.5027 20.7988 96.276 21.1394 96.034 21.4724L92.31 26.5431C92.2449 26.6238 92.1743 26.6998 92.0984 26.7701C92.0251 26.8352 91.9406 26.8864 91.8491 26.9215C91.7221 26.9627 91.5899 26.9856 91.4563 26.9896C91.2977 26.9896 91.0935 26.9896 90.852 26.9896C90.6101 26.9896 90.3079 26.9896 90.0963 26.9896C89.9476 26.9801 89.8002 26.9522 89.6584 26.9064C89.5657 26.8831 89.4816 26.8331 89.4165 26.7626C89.3749 26.6968 89.3515 26.621 89.3485 26.5431V15.4404C89.3515 15.3672 89.3749 15.2964 89.4165 15.2361C89.485 15.1628 89.5704 15.1081 89.6658 15.0772C89.8189 15.0332 89.9758 15.0028 90.134 14.9863C90.3859 14.9723 90.6382 14.9723 90.8897 14.9863C91.3063 14.9694 91.7234 15.0102 92.1287 15.1074C92.3629 15.1983 92.4838 15.3118 92.4838 15.4707V20.3825C92.4838 20.7231 92.4838 21.0712 92.4838 21.4345C92.4838 21.7978 92.4231 22.1535 92.378 22.4865L92.9897 21.5026C93.1939 21.1772 93.4129 20.8669 93.647 20.5566L97.4244 15.4707C97.4825 15.3867 97.551 15.3104 97.6282 15.2437C97.711 15.1757 97.8059 15.1243 97.9078 15.0923C98.0431 15.0514 98.1822 15.026 98.3231 15.0166C98.5295 15.0027 98.7363 15.0027 98.9427 15.0166C99.182 15.0031 99.4213 15.0031 99.6606 15.0166C99.8145 15.0256 99.9667 15.0535 100.114 15.0999C100.205 15.1254 100.285 15.1814 100.34 15.2588C100.385 15.3259 100.409 15.4051 100.408 15.4859L100.393 26.5582ZM87.4673 30.6451C87.4673 30.7586 87.3468 30.8494 87.1353 30.91C86.8066 30.9923 86.4685 31.0279 86.1303 31.0159C85.7796 31.0293 85.4288 30.9936 85.0881 30.91C84.8765 30.8494 84.7707 30.7586 84.7707 30.6451V26.9366H76.0224C75.9014 26.9462 75.7796 26.9287 75.666 26.8856C75.5524 26.8424 75.4497 26.7745 75.3651 26.6869C75.2117 26.4657 75.1371 26.199 75.154 25.93V15.4556C75.1544 15.3761 75.1809 15.299 75.2294 15.2361C75.2992 15.1611 75.3881 15.1063 75.4861 15.0772C75.6417 15.0318 75.8008 15.0014 75.9621 14.9863C76.2136 14.9726 76.4659 14.9726 76.7178 14.9863C76.9692 14.9728 77.2215 14.9728 77.473 14.9863C77.6343 15.0021 77.7934 15.0325 77.949 15.0772C78.0461 15.1084 78.1346 15.163 78.2057 15.2361C78.2516 15.3 78.2755 15.377 78.2737 15.4556V24.3332H82.4739V15.4556C82.4713 15.3756 82.4981 15.2975 82.5497 15.2361C82.6165 15.1611 82.7028 15.1061 82.799 15.0772C82.9572 15.0326 83.119 15.0022 83.2824 14.9863C83.5339 14.9728 83.7862 14.9728 84.0376 14.9863C84.2895 14.9726 84.5418 14.9726 84.7933 14.9863C84.9546 15.0014 85.1137 15.0318 85.2693 15.0772C85.3673 15.1063 85.4562 15.1611 85.526 15.2361C85.5771 15.2975 85.604 15.3756 85.6014 15.4556V24.3332H86.8782C86.9614 24.3234 87.0459 24.3304 87.1261 24.3538C87.2068 24.3772 87.2818 24.4165 87.3468 24.4694C87.4543 24.6065 87.5029 24.7806 87.4825 24.9538L87.4673 30.6451ZM68.9817 21.8129H67.8034C67.3698 21.8062 66.9372 21.8443 66.5114 21.9265C66.2058 21.9803 65.9131 22.0934 65.6504 22.2595C65.441 22.3941 65.2715 22.5822 65.1592 22.8044C65.0534 23.0289 65.0018 23.2751 65.0083 23.5233C64.9966 23.7273 65.0296 23.9313 65.1055 24.1209C65.1809 24.3106 65.2975 24.4812 65.4462 24.6208C65.787 24.9026 66.2218 25.0435 66.6627 25.0143C67.0889 25.0194 67.5077 24.904 67.8714 24.6813C68.2885 24.4107 68.6626 24.0791 68.9817 23.6974V21.8129ZM72.0035 26.5507C72.0056 26.6042 71.9952 26.6574 71.9727 26.706C71.9506 26.7547 71.9172 26.7974 71.8752 26.8307C71.759 26.9051 71.6272 26.9517 71.4897 26.9669C71.2396 27.0008 70.9873 27.016 70.7345 27.0123C70.4618 27.0183 70.1891 27.0031 69.9186 26.9669C69.7907 26.9525 69.6684 26.9057 69.5635 26.8307C69.528 26.7937 69.5002 26.7497 69.482 26.7016C69.4638 26.6535 69.4556 26.6021 69.4577 26.5507V25.6727C69.0181 26.1479 68.4927 26.5357 67.9091 26.8155C67.2996 27.1026 66.6337 27.25 65.96 27.2469C65.4124 27.2541 64.8666 27.1749 64.3433 27.0123C63.8764 26.8733 63.4424 26.6417 63.0665 26.3312C62.7063 26.0277 62.4219 25.6442 62.2359 25.2111C62.0243 24.7192 61.9211 24.1874 61.9337 23.652C61.922 23.0597 62.0599 22.4741 62.3338 21.9491C62.5979 21.4624 62.9863 21.0549 63.4597 20.7685C64.0364 20.431 64.668 20.1978 65.3257 20.0798C66.1772 19.919 67.0425 19.8429 67.9091 19.8528H68.9817V19.1867C68.9895 18.8805 68.954 18.5748 68.8759 18.2785C68.8183 18.0352 68.6982 17.8111 68.5287 17.6277C68.3522 17.4444 68.1307 17.3112 67.8866 17.2417C67.5632 17.1458 67.2263 17.1024 66.8895 17.113C66.4204 17.1078 65.9526 17.1663 65.4991 17.2871C65.1284 17.3912 64.7651 17.5202 64.4114 17.6731C64.1018 17.8169 63.8374 17.9455 63.6561 18.0591C63.5005 18.1565 63.3249 18.2162 63.1424 18.2331C63.0535 18.2329 62.9677 18.2007 62.9005 18.1423C62.8216 18.0759 62.7618 17.9898 62.7266 17.8926C62.6815 17.7643 62.646 17.6327 62.6209 17.499C62.6087 17.3251 62.6087 17.1506 62.6209 16.9768C62.6135 16.7732 62.6339 16.5694 62.6815 16.3714C62.7236 16.2195 62.8042 16.0813 62.9157 15.9702C63.0943 15.8049 63.2985 15.6695 63.52 15.5691C63.8309 15.4011 64.1543 15.2569 64.4868 15.1377C64.9013 15.0033 65.3257 14.9021 65.7562 14.835C66.2223 14.7521 66.6952 14.7116 67.1687 14.7139C67.9174 14.6981 68.6644 14.7847 69.3897 14.9712C69.9442 15.106 70.4605 15.3647 70.9006 15.728C71.3081 16.0949 71.6085 16.5657 71.7694 17.0903C71.9632 17.7277 72.0551 18.3919 72.0412 19.0581L72.0035 26.5507ZM59.3346 26.4901C59.3359 26.5292 59.3294 26.5682 59.3151 26.6046C59.3008 26.6411 59.2791 26.6742 59.2518 26.702C59.182 26.7826 59.0901 26.8405 58.9874 26.8685C58.827 26.9167 58.6627 26.9496 58.4962 26.9669C58.2447 26.9834 57.9924 26.9834 57.741 26.9669C57.4743 26.9846 57.2068 26.9846 56.9402 26.9669C56.7737 26.9496 56.6094 26.9167 56.449 26.8685C56.3484 26.8409 56.2587 26.7827 56.1924 26.702C56.1399 26.6437 56.1104 26.5685 56.1091 26.4901V20.0041H50.0959V26.4901C50.0972 26.5676 50.0704 26.643 50.0201 26.702C49.952 26.7845 49.8597 26.8428 49.7556 26.8685C49.5956 26.9167 49.4313 26.9496 49.2649 26.9669C48.7398 27.0174 48.2109 27.0174 47.6859 26.9669C47.5168 26.9504 47.3499 26.9174 47.1873 26.8685C47.0833 26.8387 46.9892 26.7812 46.9155 26.702C46.8652 26.643 46.8383 26.5676 46.8396 26.4901V11.3536C46.8392 11.2739 46.8657 11.1964 46.9155 11.1341C46.9901 11.0574 47.0842 11.0025 47.1873 10.9752C47.349 10.9226 47.5164 10.8896 47.6859 10.8768C48.2109 10.8264 48.7398 10.8264 49.2649 10.8768C49.4318 10.8903 49.5965 10.9233 49.7556 10.9752C49.8588 10.9984 49.9516 11.0541 50.0201 11.1341C50.0699 11.1964 50.0964 11.2739 50.0959 11.3536V17.2493H56.0866V11.3536C56.0892 11.2732 56.1182 11.196 56.1694 11.1341C56.2366 11.0558 56.3263 11.0003 56.4265 10.9752C56.5856 10.9233 56.7503 10.8903 56.9172 10.8768C57.1834 10.8464 57.4509 10.8338 57.718 10.8389C57.9707 10.835 58.223 10.8477 58.4736 10.8768C58.6405 10.8903 58.8053 10.9233 58.9648 10.9752C59.0667 11.0007 59.1586 11.056 59.2289 11.1341C59.2839 11.194 59.3134 11.2725 59.3121 11.3536L59.3346 26.4901Z" fill="#0578BE"/>
          <path d="M124.001 38.4626C124.002 38.6902 123.989 38.9177 123.963 39.1438C123.955 39.2914 123.925 39.437 123.872 39.5751C123.847 39.6629 123.794 39.7401 123.721 39.7946C123.662 39.8393 123.591 39.8633 123.517 39.8627H120.73V48.5664C120.731 48.6462 120.704 48.7238 120.654 48.7858C120.588 48.8608 120.501 48.9137 120.405 48.9371C120.251 48.9904 120.091 49.0212 119.929 49.0277C119.677 49.0416 119.425 49.0416 119.173 49.0277C118.922 49.0425 118.669 49.0425 118.418 49.0277C118.256 49.0195 118.096 48.9891 117.942 48.9371C117.847 48.9137 117.763 48.8604 117.7 48.7858C117.65 48.7238 117.623 48.6462 117.625 48.5664V39.8627H114.845C114.767 39.8611 114.691 39.8375 114.625 39.7946C114.552 39.7336 114.5 39.6518 114.474 39.56C114.421 39.4165 114.388 39.2662 114.376 39.1135C114.376 38.9243 114.376 38.6897 114.376 38.4248C114.375 38.2148 114.387 38.0049 114.414 37.7966C114.432 37.6547 114.464 37.5152 114.512 37.3803C114.535 37.2896 114.588 37.2094 114.663 37.1533C114.722 37.1037 114.797 37.0769 114.875 37.0776H123.54C123.614 37.0798 123.686 37.1064 123.744 37.1533C123.818 37.2094 123.872 37.2896 123.895 37.3803C123.947 37.5186 123.978 37.6641 123.985 37.8118C124.012 38.0277 124.024 38.2451 124.023 38.4626M112.692 48.6042C112.693 48.6805 112.669 48.755 112.624 48.8162C112.559 48.8864 112.475 48.9367 112.382 48.9597C112.23 48.9978 112.077 49.0234 111.921 49.0355C111.669 49.0494 111.417 49.0494 111.166 49.0355C110.914 49.049 110.662 49.049 110.41 49.0355C110.242 49.0234 110.075 48.9983 109.911 48.9597C109.81 48.9358 109.716 48.8864 109.64 48.8162C109.586 48.7585 109.556 48.6826 109.556 48.6042V43.6696C109.556 43.3214 109.556 42.9582 109.594 42.5873C109.632 42.2165 109.64 41.8305 109.685 41.4975C109.488 41.8456 109.269 42.1862 109.043 42.5192L108.332 43.5183L104.608 48.589C104.547 48.6731 104.477 48.7494 104.397 48.8162C104.324 48.8834 104.239 48.9371 104.148 48.9748C104.019 49.0087 103.887 49.0316 103.755 49.0429C103.596 49.0429 103.392 49.0429 103.15 49.0429C102.899 49.0581 102.647 49.0581 102.395 49.0429C102.244 49.0325 102.095 49.0069 101.949 48.9675C101.856 48.9397 101.773 48.8873 101.708 48.8162C101.667 48.7498 101.646 48.674 101.647 48.5964V37.4939C101.647 37.4214 101.668 37.3504 101.708 37.2895C101.775 37.2154 101.861 37.1605 101.957 37.1306C102.11 37.0787 102.271 37.0481 102.432 37.0398C102.684 37.0253 102.937 37.0253 103.188 37.0398C103.605 37.0194 104.022 37.0602 104.427 37.1609C104.669 37.2441 104.782 37.3652 104.782 37.5242V42.383C104.782 42.7235 104.782 43.0792 104.782 43.4425C104.782 43.8058 104.722 44.1539 104.676 44.4947C104.88 44.1617 105.077 43.8361 105.288 43.5105C105.5 43.1852 105.711 42.8673 105.945 42.557L109.723 37.4788C109.783 37.392 109.854 37.3131 109.934 37.2441C110.016 37.1814 110.108 37.1328 110.206 37.1003C110.341 37.0565 110.48 37.0286 110.622 37.0171C110.78 37.0171 110.984 37.0171 111.241 37.0171C111.498 37.0171 111.77 37.0171 111.997 37.0171C112.148 37.0267 112.298 37.0547 112.442 37.1003C112.532 37.1288 112.612 37.1843 112.669 37.2593C112.712 37.3273 112.735 37.4058 112.737 37.4863L112.692 48.6042ZM94.7424 39.5751H92.1056C91.9699 40.612 91.8112 41.5126 91.6448 42.2619C91.5099 42.9119 91.3387 43.5539 91.131 44.1842C90.9827 44.6455 90.7907 45.0916 90.557 45.5161C90.3723 45.8321 90.1707 46.1378 89.9527 46.4321H94.7424V39.5751ZM88.3815 52.6079C88.3811 52.6777 88.3598 52.7462 88.3208 52.8043C88.2627 52.8702 88.1864 52.9174 88.1019 52.9408C87.9649 52.9851 87.8227 53.0132 87.6788 53.0241C87.4676 53.0375 87.2556 53.0375 87.0445 53.0241C86.8255 53.0375 86.6057 53.0375 86.3872 53.0241C86.2455 53.0141 86.1059 52.9859 85.9715 52.9408C85.8848 52.9174 85.8063 52.8702 85.7447 52.8043C85.7022 52.7479 85.681 52.6786 85.6845 52.6079V47.0677C85.6637 46.8895 85.7066 46.71 85.8054 46.5605C85.9446 46.4586 86.1171 46.4126 86.2888 46.4321H86.8932C87.1776 46.0606 87.4303 45.6656 87.6488 45.2512C87.9124 44.7292 88.1301 44.1847 88.2983 43.6241C88.528 42.8583 88.7149 42.0801 88.8575 41.2932C89.0236 40.3849 89.1823 39.3027 89.3331 38.0388C89.3388 37.9014 89.3669 37.7659 89.4164 37.6377C89.4424 37.524 89.494 37.4178 89.5677 37.3274C89.6353 37.2481 89.7207 37.1859 89.817 37.1458C89.937 37.098 90.0654 37.0748 90.1946 37.0776H96.9933C97.1151 37.0685 97.2374 37.0869 97.3514 37.1314C97.465 37.176 97.5673 37.2455 97.6506 37.335C97.8045 37.5561 97.879 37.8228 97.8621 38.0918V46.417H99.1237C99.2928 46.4009 99.4619 46.4464 99.5997 46.5457C99.6565 46.616 99.6986 46.6975 99.7229 46.7846C99.7476 46.8713 99.7545 46.9628 99.7432 47.0525V52.5927C99.7428 52.6625 99.722 52.731 99.683 52.7895C99.6201 52.8533 99.5421 52.9001 99.4562 52.9257C99.3192 52.9708 99.177 52.9989 99.0331 53.0089C98.6035 53.0492 98.1712 53.0492 97.7412 53.0089C97.5998 52.9998 97.4602 52.9716 97.3258 52.9257C97.24 52.9001 97.162 52.8533 97.0991 52.7895C97.0544 52.7336 97.0306 52.6642 97.031 52.5927V48.99H88.3815V52.6079ZM81.7033 41.8229C81.7731 41.0946 81.5893 40.3644 81.1822 39.7568C80.9745 39.4981 80.707 39.294 80.4031 39.1622C80.0988 39.0303 79.7671 38.9746 79.4368 39C79.0817 38.9886 78.7292 39.0639 78.4097 39.2195C78.1149 39.3572 77.8561 39.5619 77.6541 39.8174C77.4538 40.0861 77.3029 40.3885 77.2084 40.7104C77.1039 41.0701 77.0432 41.4411 77.0272 41.8154L81.7033 41.8229ZM84.7251 42.716C84.7498 43.0174 84.6605 43.317 84.4758 43.556C84.3847 43.6488 84.275 43.7212 84.1537 43.7681C84.0327 43.8153 83.9031 43.8357 83.773 43.8283H77.0497C77.0471 44.2605 77.103 44.6906 77.2162 45.1077C77.3194 45.4714 77.5023 45.8078 77.7525 46.0914C78.01 46.3688 78.3317 46.5795 78.6889 46.7044C79.1337 46.8566 79.6019 46.9281 80.0715 46.9164C80.5523 46.9216 81.0326 46.8839 81.5069 46.8028C81.8693 46.7352 82.2274 46.6467 82.5795 46.5379C82.8817 46.4473 83.1309 46.3563 83.3351 46.2808C83.4869 46.2097 83.6512 46.1685 83.8185 46.1594C83.8823 46.1564 83.9451 46.1724 83.9997 46.205C84.0591 46.2383 84.1047 46.2921 84.1281 46.3563C84.1645 46.459 84.1875 46.5657 84.1961 46.6741C84.2048 46.8457 84.2048 47.0174 84.1961 47.1887C84.1961 47.3703 84.1961 47.5294 84.1961 47.6582C84.2018 47.7666 84.2018 47.875 84.1961 47.9833C84.1862 48.0635 84.1606 48.1407 84.1207 48.2105C84.0895 48.2786 84.0457 48.3401 83.9924 48.3922C83.8619 48.4962 83.7132 48.576 83.5541 48.6267C83.2532 48.7438 82.9454 48.8426 82.6324 48.9219C82.2621 49.0126 81.8771 49.0962 81.3634 49.1643C80.8631 49.2376 80.358 49.2731 79.8525 49.2701C78.9794 49.2879 78.1093 49.1626 77.2764 48.8994C76.5776 48.6787 75.9424 48.292 75.4257 47.7718C74.8911 47.2398 74.494 46.5852 74.2699 45.8642C74.0041 44.9811 73.874 44.0624 73.8844 43.1398C73.8745 42.2446 74.0045 41.3534 74.2699 40.4985C74.4966 39.7575 74.8746 39.0719 75.3801 38.4853C75.87 37.938 76.477 37.5085 77.1555 37.229C78.6824 36.6687 80.358 36.6687 81.8845 37.229C82.5053 37.4741 83.0594 37.8632 83.5012 38.3642C83.9317 38.8626 84.249 39.4488 84.4302 40.0822C84.6327 40.7831 84.732 41.5097 84.7251 42.2392V42.716ZM68.793 43.0944C68.793 42.6408 68.7574 42.1878 68.6872 41.7397C68.6269 41.3381 68.5073 40.9478 68.3321 40.5817C68.1752 40.26 67.945 39.9799 67.6597 39.7644C67.3558 39.5556 66.9929 39.4495 66.6249 39.4616C66.4168 39.461 66.21 39.4942 66.0127 39.56C65.7925 39.6297 65.5835 39.7317 65.3932 39.8627C65.1582 40.0208 64.9401 40.2035 64.7437 40.4077C64.4905 40.6686 64.2556 40.9467 64.041 41.2402V44.8805C64.4043 45.3574 64.8226 45.7892 65.2874 46.1672C65.639 46.4516 66.0747 46.6116 66.5264 46.6212C66.8958 46.632 67.2587 46.5232 67.5613 46.3108C67.8379 46.0879 68.0642 45.8096 68.2263 45.4935C68.4162 45.1367 68.5537 44.7543 68.6343 44.3581C68.7184 43.9423 68.7613 43.5188 68.7626 43.0944M72.0033 42.8749C72.0124 43.7698 71.9084 44.6624 71.6938 45.5312C71.5117 46.2557 71.1995 46.9402 70.7721 47.552C70.378 48.0917 69.8599 48.5279 69.2612 48.8235C68.6161 49.1339 67.9068 49.287 67.1911 49.2701C66.9049 49.2757 66.6188 49.2506 66.3374 49.1942C66.0751 49.1292 65.8215 49.0325 65.5822 48.9068C65.3156 48.7728 65.0624 48.6133 64.8265 48.4299C64.5616 48.2235 64.3093 48.0011 64.0713 47.764V52.9786C64.0739 53.0583 64.047 53.1368 63.9959 53.1979C63.9278 53.279 63.8389 53.3393 63.7388 53.3722C63.5853 53.4273 63.4253 53.4628 63.2628 53.478C63.0113 53.4919 62.759 53.4919 62.5075 53.478C62.2557 53.4919 62.0038 53.4919 61.7519 53.478C61.5871 53.4628 61.425 53.4273 61.2685 53.3722C61.1696 53.341 61.0825 53.2803 61.0192 53.1979C60.968 53.1368 60.9412 53.0583 60.9438 52.9786V37.5014C60.9403 37.4261 60.9616 37.3517 61.004 37.2895C61.0595 37.2158 61.1358 37.1604 61.2234 37.1306C61.353 37.0778 61.4909 37.0471 61.6314 37.0398C61.8425 37.0261 62.0545 37.0261 62.2656 37.0398C62.4746 37.0263 62.684 37.0263 62.893 37.0398C63.0326 37.0488 63.1704 37.0795 63.3009 37.1306C63.3881 37.1604 63.4644 37.2158 63.5199 37.2895C63.5589 37.3533 63.5797 37.4266 63.5801 37.5014V38.8032C63.8775 38.4947 64.1927 38.2041 64.5244 37.9328C64.8213 37.6952 65.137 37.4826 65.469 37.2971C65.7855 37.1325 66.1202 37.0055 66.4662 36.9187C66.8278 36.8348 67.198 36.7942 67.5691 36.7976C68.2857 36.7759 68.9963 36.9401 69.6314 37.2744C70.1907 37.5942 70.6607 38.0496 70.9988 38.5988C71.3669 39.1901 71.6231 39.8444 71.754 40.5287C71.9231 41.2992 72.0068 42.0861 72.0033 42.8749ZM58.6625 48.5513C58.6651 48.6358 58.6387 48.7186 58.5866 48.7858C58.5138 48.8587 58.4223 48.9111 58.3222 48.9371C58.1557 48.9891 57.9831 49.0199 57.8084 49.0277C57.5318 49.042 57.2544 49.042 56.9778 49.0277C56.6908 49.0425 56.4033 49.0425 56.1163 49.0277C55.9364 49.0212 55.7582 48.9883 55.5874 48.9293C55.4751 48.8964 55.3732 48.8335 55.293 48.7481C55.2241 48.6614 55.1751 48.5604 55.1495 48.4529L53.8728 44.8805C53.7223 44.4275 53.5298 43.9892 53.2988 43.5712C53.1288 43.2533 52.9094 42.9646 52.6489 42.716C52.4152 42.5023 52.1365 42.3444 51.833 42.2543C51.5135 42.1644 51.1831 42.1186 50.851 42.1181H50.0954V48.5435C50.0993 48.6258 50.0724 48.7069 50.0199 48.7706C49.9467 48.8452 49.856 48.8998 49.7555 48.9293C49.5985 48.9887 49.4325 49.0221 49.2647 49.0277C48.7397 49.0785 48.2108 49.0785 47.6858 49.0277C47.5154 49.0225 47.3467 48.9891 47.1872 48.9293C47.0853 48.8981 46.9925 48.8439 46.9154 48.7706C46.8629 48.7069 46.836 48.6258 46.8395 48.5435V33.407C46.8356 33.3222 46.862 33.2388 46.9154 33.1724C46.9912 33.0993 47.0849 33.0472 47.1872 33.021C47.3485 32.9679 47.5162 32.9374 47.6858 32.9302C48.2108 32.8798 48.7397 32.8798 49.2647 32.9302C49.4316 32.9379 49.5968 32.9685 49.7555 33.021C49.8565 33.0452 49.948 33.0978 50.0199 33.1724C50.0728 33.2388 50.0997 33.3222 50.0954 33.407V39.4616H50.851C51.1848 39.471 51.5174 39.4197 51.833 39.3102C52.1156 39.2105 52.3736 39.0504 52.5886 38.841C52.8388 38.5961 53.0477 38.3124 53.2082 38.001C53.4184 37.5938 53.5975 37.1713 53.7444 36.7371L54.8248 33.5357C54.8569 33.4305 54.9055 33.331 54.9683 33.2405C55.0438 33.1547 55.14 33.0895 55.2475 33.0513C55.4118 32.999 55.5818 32.9685 55.7539 32.9605C56.0383 32.9458 56.3231 32.9458 56.6075 32.9605C56.859 32.9476 57.1113 32.9476 57.3628 32.9605C57.5318 32.9695 57.6987 32.9975 57.8613 33.0438C57.9541 33.0679 58.0378 33.1177 58.1032 33.1875C58.1436 33.2591 58.1644 33.34 58.1635 33.4221C58.1574 33.5546 58.1401 33.6863 58.1106 33.8157C58.0729 33.9746 58.0053 34.179 57.9142 34.4363L56.8416 37.2895C56.67 37.7368 56.4731 38.1739 56.2525 38.5988C56.0777 38.9358 55.8675 39.253 55.6256 39.5449C55.427 39.7903 55.1959 40.0068 54.938 40.1882C54.6805 40.3513 54.4069 40.4882 54.1221 40.5968C54.4359 40.7241 54.7372 40.8812 55.0212 41.0661C55.3026 41.2576 55.5571 41.4867 55.7764 41.7472C56.0357 42.055 56.2611 42.39 56.4489 42.7462C56.6955 43.2228 56.9149 43.713 57.1061 44.2146L58.4054 47.5368C58.5047 47.764 58.5832 47.9994 58.6395 48.2409C58.6482 48.344 58.6482 48.4477 58.6395 48.5513" fill="#0578BE"/>
          <path d="M14.3329 60.6686L0.394941 36.1096C0.234071 35.8255 0.192243 35.4891 0.27863 35.1741C0.365017 34.8591 0.572568 34.5913 0.85576 34.4295" fill="#0578BE"/>
          <path d="M0.855815 34.429L7.51881 30.6449L0.886033 26.8607C0.602841 26.6989 0.395291 26.4311 0.308904 26.1161C0.222516 25.8012 0.264344 25.4647 0.425214 25.1806L14.3632 0.621591C14.4424 0.481371 14.5485 0.358185 14.6753 0.259078C14.8022 0.159972 14.9473 0.0868893 15.1024 0.0440114C15.2574 0.00113342 15.4194 -0.0106989 15.5791 0.00919131C15.7387 0.0290815 15.8928 0.0803039 16.0327 0.159929L33.8007 10.2787V14.638L16.4255 4.7236L4.97299 24.8249L33.8007 41.248V50.9885L14.3263 60.6963" fill="#0578BE"/>
          <path d="M19.7645 13.4725L33.8007 21.51V25.6347L17.9893 16.5528C17.6017 16.305 17.3241 15.9173 17.214 15.47C17.104 15.0228 17.1699 14.5503 17.3981 14.1504C17.6264 13.7505 17.9994 13.454 18.4399 13.3221C18.8805 13.1903 19.3548 13.2333 19.7645 13.4422" fill="#373A3B"/>
          <path d="M16.1006 20.2612L33.8007 30.3951V34.5198L14.3329 23.3718C14.1122 23.2647 13.9159 23.1135 13.7559 22.9273C13.596 22.7411 13.476 22.524 13.4032 22.2894C13.3305 22.0548 13.3066 21.8078 13.3331 21.5636C13.3596 21.3194 13.4358 21.0833 13.5571 20.8699C13.6784 20.6564 13.8422 20.4702 14.0383 20.3227C14.2344 20.1753 14.4586 20.0698 14.6971 20.0127C14.9355 19.9557 15.1832 19.9482 15.4246 19.991C15.6661 20.0337 15.8961 20.1257 16.1006 20.2612Z" fill="#373A3B"/>
          <path d="M39.8518 10.8533H37.2078V50.2839H39.8518V10.8533Z" fill="#373A3B"/>
        </g>
      </g>
    </g>
  </g>
  <defs>
    <clipPath id="clip0_8001_1191">
      <rect width="212" height="61.13" fill="white" transform="translate(0.236328)"/>
    </clipPath>
    <clipPath id="clip1_8001_1191">
      <rect width="212" height="61.13" fill="white" transform="translate(0.236328)"/>
    </clipPath>
    <clipPath id="clip2_8001_1191">
      <rect width="212" height="61.1288" fill="white" transform="translate(0.236328 0.000976562)"/>
    </clipPath>
  </defs>
</svg>
