<svg width="80" height="16" viewBox="0 0 80 16" fill="none"
  xmlns="http://www.w3.org/2000/svg">
  <g clip-path="url(#clip0_10186_110)">
    <path d="M8.00006 11.5135L10.7667 13.1868C11.2734 13.4935 11.8934 13.0401 11.7601 12.4668L11.0267 9.32015L13.4734 7.20015C13.9201 6.81352 13.6801 6.08017 13.0934 6.0335L9.8734 5.76017L8.61337 2.78684C8.38675 2.24684 7.61337 2.24684 7.38675 2.78684L6.12672 5.7535L2.90672 6.02684C2.32005 6.0735 2.08005 6.80687 2.52672 7.19349L4.97339 9.31349L4.24005 12.4602C4.10672 13.0335 4.72672 13.4869 5.23338 13.1802L8.00006 11.5135Z" fill="#FFCD00"/>
  </g>
  <g clip-path="url(#clip1_10186_110)">
    <path d="M24.0001 11.5135L26.7667 13.1868C27.2734 13.4935 27.8934 13.0401 27.7601 12.4668L27.0267 9.32015L29.4734 7.20015C29.9201 6.81352 29.6801 6.08017 29.0934 6.0335L25.8734 5.76017L24.6134 2.78684C24.3867 2.24684 23.6134 2.24684 23.3867 2.78684L22.1267 5.7535L18.9067 6.02684C18.32 6.0735 18.08 6.80687 18.5267 7.19349L20.9734 9.31349L20.24 12.4602C20.1067 13.0335 20.7267 13.4869 21.2334 13.1802L24.0001 11.5135Z" fill="#FFCD00"/>
  </g>
  <g clip-path="url(#clip2_10186_110)">
    <path d="M40.0001 11.5135L42.7667 13.1868C43.2734 13.4935 43.8934 13.0401 43.7601 12.4668L43.0267 9.32015L45.4734 7.20015C45.9201 6.81352 45.6801 6.08017 45.0934 6.0335L41.8734 5.76017L40.6134 2.78684C40.3867 2.24684 39.6134 2.24684 39.3867 2.78684L38.1267 5.7535L34.9067 6.02684C34.32 6.0735 34.08 6.80687 34.5267 7.19349L36.9734 9.31349L36.24 12.4602C36.1067 13.0335 36.7267 13.4869 37.2334 13.1802L40.0001 11.5135Z" fill="#FFCD00"/>
  </g>
  <g clip-path="url(#clip3_10186_110)">
    <path d="M56.0001 11.5135L58.7667 13.1868C59.2734 13.4935 59.8934 13.0401 59.7601 12.4668L59.0267 9.32015L61.4734 7.20015C61.9201 6.81352 61.6801 6.08017 61.0934 6.0335L57.8734 5.76017L56.6134 2.78684C56.3867 2.24684 55.6134 2.24684 55.3867 2.78684L54.1267 5.7535L50.9067 6.02684C50.32 6.0735 50.08 6.80687 50.5267 7.19349L52.9734 9.31349L52.24 12.4602C52.1067 13.0335 52.7267 13.4869 53.2334 13.1802L56.0001 11.5135Z" fill="#FFCD00"/>
  </g>
  <g clip-path="url(#clip4_10186_110)">
    <path d="M72.0001 11.5135L74.7667 13.1868C75.2734 13.4935 75.8934 13.0401 75.7601 12.4668L75.0267 9.32015L77.4734 7.20015C77.9201 6.81352 77.6801 6.08017 77.0934 6.0335L73.8734 5.76017L72.6134 2.78684C72.3867 2.24684 71.6134 2.24684 71.3867 2.78684L70.1267 5.7535L66.9067 6.02684C66.32 6.0735 66.08 6.80687 66.5267 7.19349L68.9734 9.31349L68.24 12.4602C68.1067 13.0335 68.7267 13.4869 69.2334 13.1802L72.0001 11.5135Z" fill="#FFCD00"/>
  </g>
  <defs>
    <clipPath id="clip0_10186_110">
      <rect width="16" height="16" fill="white"/>
    </clipPath>
    <clipPath id="clip1_10186_110">
      <rect width="16" height="16" fill="white" transform="translate(16)"/>
    </clipPath>
    <clipPath id="clip2_10186_110">
      <rect width="16" height="16" fill="white" transform="translate(32)"/>
    </clipPath>
    <clipPath id="clip3_10186_110">
      <rect width="16" height="16" fill="white" transform="translate(48)"/>
    </clipPath>
    <clipPath id="clip4_10186_110">
      <rect width="16" height="16" fill="white" transform="translate(64)"/>
    </clipPath>
  </defs>
</svg>
