<svg width="60" height="59" viewBox="0 0 60 59" fill="none" xmlns="http://www.w3.org/2000/svg">
<path d="M57 41.7394C55.4896 40.9915 48.2554 37.2515 46.9041 36.6698C45.5527 36.088 44.5987 35.9218 43.5653 37.5009C42.5318 39.0799 39.7495 42.4874 38.875 43.5678C38.0006 44.6483 37.2056 44.7313 35.6952 43.5678C31.357 41.7477 27.3503 39.1614 23.8504 35.9218C20.6822 32.8032 17.9999 29.1859 15.9009 25.2008C15.0264 23.7048 15.9009 22.8737 16.5368 22.0427C17.1728 21.2116 17.9678 20.2974 18.7627 19.3832C19.344 18.5926 19.825 17.7266 20.1936 16.8068C20.3908 16.379 20.4933 15.9103 20.4933 15.4355C20.4933 14.9606 20.3908 14.4919 20.1936 14.0642C20.1936 13.3162 16.8548 5.75333 15.5829 2.67829C14.311 -0.396731 13.198 0.0188112 12.3236 0.0188112H9.14378C7.629 0.0805515 6.19949 0.767998 5.16901 1.93031C3.50562 3.58975 2.18806 5.59055 1.29889 7.80721C0.409728 10.0239 -0.0318667 12.4087 0.00178874 14.8122C0.408406 20.7127 2.48369 26.3537 5.96395 31.0184C12.3504 40.9369 21.0877 48.9544 31.323 54.2887C34.8208 55.8682 37.5237 56.7821 39.67 57.5303C42.684 58.4827 45.8699 58.6818 48.9711 58.1117C51.0304 57.6749 52.9827 56.8004 54.7054 55.5422C56.4285 54.2845 57.886 52.6694 58.9875 50.7983C59.9038 48.4876 60.2062 45.9604 59.8619 43.4847C59.4645 42.9029 58.5105 42.4874 57 41.7394Z" fill="#0072CE"/>
</svg>
