<svg width="60" height="60" viewBox="0 0 60 60" fill="none" xmlns="http://www.w3.org/2000/svg">
<path fill-rule="evenodd" clip-rule="evenodd" d="M1.19165 26.7515L57.0067 0.204243C57.3971 0.0178073 57.8355 -0.043027 58.2622 0.0301294C58.6884 0.103286 59.0817 0.306829 59.3876 0.612731C59.6931 0.918632 59.8969 1.31184 59.97 1.73822C60.043 2.1646 59.9822 2.60318 59.7957 2.99356L33.2444 58.8112C33.0647 59.1867 32.7769 59.5003 32.418 59.7113C32.059 59.9223 31.6453 60.0214 31.2297 59.9961C30.8141 59.9708 30.4155 59.8218 30.085 59.5682C29.7545 59.315 29.5072 58.969 29.3747 58.574L22.3847 37.6124L1.4322 30.6287C1.03625 30.4971 0.688692 30.2501 0.434193 29.9194C0.179694 29.5888 0.0298867 29.1896 0.00402351 28.7731C-0.0218395 28.3566 0.077424 27.9419 0.289056 27.5823C0.50069 27.2227 0.815019 26.9311 1.19165 26.7515Z" fill="#0072CE"/>
</svg>
