<svg width="60" height="59" viewBox="0 0 60 59" fill="none" xmlns="http://www.w3.org/2000/svg">
<path d="M30 0C13.47 0 0 13.1175 0 29.2148C0 45.312 13.47 58.4294 30 58.4294C46.5301 58.4294 60 45.312 60 29.2148C60 13.1175 46.5301 0 30 0ZM43.0497 39.6445C42.6298 40.3456 41.8799 40.7257 41.0998 40.7257C40.7099 40.7257 40.3199 40.638 39.9599 40.4039L30.6599 34.9993C28.3499 33.6555 26.64 30.7048 26.64 28.1046V16.1266C26.64 14.9288 27.6599 13.9354 28.89 13.9354C30.12 13.9354 31.1399 14.9288 31.1399 16.1266V28.1046C31.1399 29.1564 32.04 30.7048 32.97 31.2306L42.2701 36.6354C43.35 37.2489 43.7101 38.5928 43.0497 39.6445Z" fill="#0072CE"/>
</svg>
