<svg width="60" height="60" viewBox="0 0 60 60" fill="none" xmlns="http://www.w3.org/2000/svg">
<path fill-rule="evenodd" clip-rule="evenodd" d="M29.9914 0C13.4528 0 0 13.4566 0 29.9997C0 36.5605 2.1158 42.645 5.71252 47.5835L1.97449 58.7297L13.5056 55.0443C18.2482 58.1836 23.908 60 30.0086 60C46.5472 60 60 46.5427 60 30.0003C60 13.4571 46.5472 0.00049591 30.0086 0.00049591L29.9914 0ZM21.6161 15.2385C21.0344 13.8453 20.5935 13.7926 19.7122 13.7567C19.4122 13.7393 19.0778 13.7219 18.707 13.7219C17.5606 13.7219 16.3618 14.0569 15.6388 14.7975C14.7575 15.697 12.571 17.7954 12.571 22.099C12.571 26.4023 15.7095 30.5645 16.1324 31.147C16.5733 31.7284 22.251 40.6878 31.0667 44.3393C37.9604 47.1962 40.0062 46.9316 41.575 46.5966C43.867 46.1029 46.7413 44.4091 47.4642 42.3636C48.1873 40.3174 48.1873 38.5713 47.9752 38.201C47.7639 37.8309 47.1817 37.6198 46.3004 37.1781C45.4192 36.7372 41.1342 34.6208 40.3231 34.3386C39.5293 34.0388 38.7715 34.145 38.1725 34.9916C37.326 36.1732 36.4975 37.3728 35.8273 38.0955C35.2983 38.6601 34.434 38.7306 33.7114 38.4305C32.7415 38.0253 30.0266 37.0722 26.6763 34.0916C24.0842 31.7815 22.3212 28.9071 21.8102 28.0431C21.2986 27.1615 21.7574 26.6493 22.1624 26.1736C22.6033 25.6265 23.0263 25.2387 23.4672 24.727C23.9081 24.2159 24.1549 23.9511 24.437 23.3513C24.7371 22.7694 24.5251 22.1696 24.3136 21.7286C24.1021 21.2876 22.3391 16.9841 21.6161 15.2385Z" fill="#0072CE"/>
</svg>

