<svg width="19" height="19" viewBox="0 0 19 19" fill="none"
  xmlns="http://www.w3.org/2000/svg">
  <g clip-path="url(#clip0_8001_1227)">
    <g clip-path="url(#clip1_8001_1227)">
      <path d="M17.3163 13.418C16.8632 13.1876 14.693 12.0355 14.2875 11.8563C13.8821 11.677 13.5959 11.6258 13.2859 12.1123C12.9759 12.5987 12.1412 13.6485 11.8788 13.9813C11.6165 14.3141 11.378 14.3397 10.9249 13.9813C9.6234 13.4206 8.42141 12.6238 7.37143 11.6258C6.42096 10.6651 5.61628 9.55069 4.98657 8.32303C4.72424 7.86218 4.98657 7.60615 5.17736 7.35012C5.36815 7.09409 5.60664 6.81246 5.84512 6.53083C6.01952 6.28727 6.16382 6.02049 6.2744 5.73714C6.33356 5.60537 6.36429 5.46097 6.36429 5.31469C6.36429 5.16841 6.33356 5.02402 6.2744 4.89225C6.2744 4.66182 5.27276 2.33196 4.89118 1.38466C4.5096 0.437351 4.17572 0.565365 3.91338 0.565365H2.95944C2.50501 0.584385 2.07616 0.796163 1.76701 1.15423C1.26799 1.66545 0.872725 2.28181 0.605976 2.9647C0.339228 3.64758 0.206749 4.38225 0.216845 5.12267C0.338831 6.94042 0.961416 8.67821 2.00549 10.1152C3.92142 13.1708 6.54262 15.6408 9.6132 17.2841C10.6625 17.7705 11.4734 18.0521 12.1173 18.2826C13.0215 18.576 13.9772 18.6374 14.9076 18.4618C15.5255 18.3272 16.1111 18.0578 16.628 17.6702C17.1449 17.2826 17.5821 16.7852 17.9125 16.2087C18.1875 15.4968 18.2781 14.7184 18.1749 13.9557C18.0556 13.7765 17.7694 13.6484 17.3163 13.418Z" fill="#0072CE"/>
    </g>
  </g>
  <defs>
    <clipPath id="clip0_8001_1227">
      <rect width="18" height="18" fill="white" transform="translate(0.216309 0.55957)"/>
    </clipPath>
    <clipPath id="clip1_8001_1227">
      <rect width="18" height="18" fill="white" transform="translate(0.216309 0.55957)"/>
    </clipPath>
  </defs>
</svg>
