<svg width="25" height="25" viewBox="0 0 25 25" fill="none" xmlns="http://www.w3.org/2000/svg">
<g clip-path="url(#clip0_8001_1220)">
<path fill-rule="evenodd" clip-rule="evenodd" d="M12.213 0.55957C5.87323 0.55957 0.716309 5.80619 0.716309 12.2563C0.716309 14.8143 1.52737 17.1866 2.90611 19.1121L1.4732 23.4579L5.89344 22.021C7.71147 23.245 9.88106 23.9532 12.2196 23.9532C18.5594 23.9532 23.7163 18.7063 23.7163 12.2565C23.7163 5.8064 18.5594 0.559764 12.2196 0.559764L12.213 0.55957ZM9.00247 6.50096C8.77948 5.95776 8.61048 5.9372 8.27266 5.92323C8.15764 5.91643 8.02945 5.90965 7.88734 5.90965C7.44786 5.90965 6.98835 6.04025 6.71119 6.32903C6.37337 6.67971 5.5352 7.49789 5.5352 9.17581C5.5352 10.8537 6.73827 12.4765 6.90041 12.7036C7.06941 12.9303 9.24585 16.4235 12.6252 17.8472C15.2678 18.9611 16.052 18.8579 16.6534 18.7273C17.532 18.5348 18.6338 17.8744 18.9109 17.0769C19.1881 16.2791 19.1881 15.5983 19.1068 15.4539C19.0258 15.3096 18.8026 15.2273 18.4648 15.0551C18.127 14.8832 16.4844 14.058 16.1735 13.948C15.8692 13.8311 15.5787 13.8725 15.3491 14.2026C15.0246 14.6633 14.707 15.131 14.4501 15.4128C14.2473 15.6329 13.916 15.6604 13.639 15.5434C13.2672 15.3854 12.2265 15.0138 10.9422 13.8517C9.94859 12.951 9.27277 11.8303 9.07687 11.4934C8.88078 11.1497 9.05663 10.95 9.2119 10.7645C9.3809 10.5512 9.54306 10.4 9.71206 10.2005C9.88107 10.0012 9.97568 9.89793 10.0838 9.66408C10.1989 9.43721 10.1176 9.20336 10.0365 9.03142C9.95545 8.85947 9.27962 7.18156 9.00247 6.50096Z" fill="#0072CE"/>
</g>
<defs>
<clipPath id="clip0_8001_1220">
<rect width="24" height="24" fill="white" transform="translate(0.216309 0.55957)"/>
</clipPath>
</defs>
</svg>
